# xmcd
#
# Track frame offsets:
#	150
#	48016
#	68544
#	83829
#	131568
#	234333
#	253987
#
# Disc length: 4266 seconds
#
# Revision: 1
# Processed by: cddbd v1.5.2PL0 Copyright (c) Steve Scherf et al.
# Submitted via: audiograbber 1.83.01
#
DISCID=5210a807
DTITLE=Grateful Dead - 67-09-03 Dance Hall, Rio Nido, CA
DYEAR=1900
DGENRE=
TTITLE0=Dancing In The Streets
TTITLE1=It Hurts Me Too
TTITLE2=Cold Rain and Snow
TTITLE3=Good Morning Little Schoolgirl
TTITLE4=Viola Lee Blues
TTITLE5=Big Boss Man
TTITLE6=Alligator
EXTD=
EXTT0=
EXTT1=
EXTT2=
EXTT3=
EXTT4=
EXTT5=
EXTT6=
PLAYORDER=
